<svg viewBox="0 0 200 200" xmlns="http://www.w3.org/2000/svg">
  <defs>
    <filter id="sh" x="-10%" y="-10%" width="125%" height="125%">
      <feDropShadow dx="0" dy="2" stdDeviation="4" flood-color="#0D9488" flood-opacity="0.15"/>
    </filter>
  </defs>

  <!-- Background -->
  <rect width="200" height="200" fill="#F0FDFA" rx="32"/>

  <!-- Back document (slightly offset) -->
  <g filter="url(#sh)">
    <rect x="62" y="32" width="96" height="128" rx="10" fill="white"/>
  </g>
  <!-- Lines on back doc -->
  <rect x="76" y="52" width="50" height="5" rx="2.5" fill="#E2E8F0"/>
  <rect x="76" y="64" width="66" height="5" rx="2.5" fill="#E2E8F0"/>
  <rect x="76" y="76" width="40" height="5" rx="2.5" fill="#F43F5E" opacity="0.4"/>
  <rect x="76" y="88" width="55" height="5" rx="2.5" fill="#F43F5E" opacity="0.4"/>
  <rect x="76" y="100" width="60" height="5" rx="2.5" fill="#E2E8F0"/>
  <rect x="76" y="112" width="45" height="5" rx="2.5" fill="#E2E8F0"/>
  <rect x="76" y="124" width="52" height="5" rx="2.5" fill="#E2E8F0"/>
  <rect x="76" y="136" width="38" height="5" rx="2.5" fill="#E2E8F0"/>

  <!-- Front document (overlapping, offset down-left) -->
  <g filter="url(#sh)">
    <rect x="42" y="48" width="96" height="128" rx="10" fill="white"/>
  </g>
  <!-- Lines on front doc -->
  <rect x="56" y="68" width="50" height="5" rx="2.5" fill="#E2E8F0"/>
  <rect x="56" y="80" width="66" height="5" rx="2.5" fill="#E2E8F0"/>
  <rect x="56" y="92" width="55" height="5" rx="2.5" fill="#22C55E" opacity="0.5"/>
  <rect x="56" y="104" width="40" height="5" rx="2.5" fill="#22C55E" opacity="0.5"/>
  <rect x="56" y="116" width="48" height="5" rx="2.5" fill="#22C55E" opacity="0.5"/>
  <rect x="56" y="128" width="60" height="5" rx="2.5" fill="#E2E8F0"/>
  <rect x="56" y="140" width="45" height="5" rx="2.5" fill="#E2E8F0"/>
  <rect x="56" y="152" width="52" height="5" rx="2.5" fill="#E2E8F0"/>

  <!-- Diff indicator badge -->
  <circle cx="148" cy="152" r="20" fill="#0D9488"/>
  <path d="M140,146 L148,140 L156,146" stroke="white" stroke-width="2.5" fill="none" stroke-linecap="round" stroke-linejoin="round"/>
  <path d="M140,158 L148,164 L156,158" stroke="white" stroke-width="2.5" fill="none" stroke-linecap="round" stroke-linejoin="round"/>
  <line x1="148" y1="143" x2="148" y2="161" stroke="white" stroke-width="2.5" stroke-linecap="round"/>
</svg>